<svg width="333" height="49" viewBox="0 0 333 49" fill="none" xmlns="http://www.w3.org/2000/svg">
<path d="M16.9274 1.41598H27.0074V39.216C27.0074 45.552 24.0314 48.72 18.0794 48.72H9.15138C3.19938 48.72 0.223389 45.552 0.223389 39.216V1.41598H10.3034V40.08C10.3034 40.464 10.4234 40.8 10.6634 41.088C10.9514 41.376 11.2874 41.52 11.6714 41.52H15.5594C15.9434 41.52 16.2554 41.376 16.4954 41.088C16.7834 40.8 16.9274 40.464 16.9274 40.08V1.41598Z" fill="white"/>
<path d="M60.6168 48H50.5368V9.33599C50.5368 8.95198 50.3928 8.61598 50.1048 8.32798C49.8648 8.03998 49.5528 7.89598 49.1688 7.89598H45.2808C44.8968 7.89598 44.5608 8.03998 44.2728 8.32798C44.0328 8.61598 43.9128 8.95198 43.9128 9.33599V48H33.8328V10.2C33.8328 3.86398 36.8088 0.695984 42.7608 0.695984H51.6888C57.6408 0.695984 60.6168 3.86398 60.6168 10.2V48Z" fill="white"/>
<path d="M77.4535 28.92V48H67.3735V1.41598H85.3015C91.2535 1.41598 94.2295 4.58398 94.2295 10.92V16.32C94.2295 20.16 92.8615 22.608 90.1255 23.664C92.5255 24.528 93.7255 26.496 93.7255 29.568V48H83.6455V30.36C83.6455 29.4 83.1895 28.92 82.2775 28.92H77.4535ZM77.4535 8.25598V21.864H82.7815C83.1655 21.864 83.4775 21.72 83.7175 21.432C84.0055 21.144 84.1495 20.808 84.1495 20.424V9.69598C84.1495 9.31198 84.0055 8.97598 83.7175 8.68798C83.4775 8.39998 83.1655 8.25598 82.7815 8.25598H77.4535Z" fill="white"/>
<path d="M110.782 39.648H121.942V48H100.702V1.41598H121.942V9.62398H110.782V20.568H121.222V28.488H110.782V39.648Z" fill="white"/>
<path d="M146.276 0.695984C152.228 0.695984 155.204 3.86398 155.204 10.2V48H145.124V32.376H137.852V48H127.772V10.2C127.772 3.86398 130.748 0.695984 136.7 0.695984H146.276ZM137.852 24.6H145.124V8.97598C145.124 8.59198 144.98 8.25598 144.692 7.96798C144.452 7.67998 144.14 7.53598 143.756 7.53598H139.22C138.836 7.53598 138.5 7.67998 138.212 7.96798C137.972 8.25598 137.852 8.59198 137.852 8.97598V24.6Z" fill="white"/>
<path d="M172.797 39.504H183.813V48H162.717V1.41598H172.797V39.504Z" fill="white"/>
<path d="M229.859 48H219.779V9.33599C219.779 8.95198 219.635 8.61598 219.347 8.32798C219.107 8.03998 218.795 7.89598 218.411 7.89598H214.523C214.139 7.89598 213.803 8.03998 213.515 8.32798C213.275 8.61598 213.155 8.95198 213.155 9.33599V48H203.075V10.2C203.075 3.86398 206.051 0.695984 212.003 0.695984H220.931C226.883 0.695984 229.859 3.86398 229.859 10.2V48Z" fill="white"/>
<path d="M255.12 0.695984C261.072 0.695984 264.048 3.86398 264.048 10.2V48H253.968V32.376H246.696V48H236.616V10.2C236.616 3.86398 239.592 0.695984 245.544 0.695984H255.12ZM246.696 24.6H253.968V8.97598C253.968 8.59198 253.824 8.25598 253.536 7.96798C253.296 7.67998 252.984 7.53598 252.6 7.53598H248.064C247.68 7.53598 247.344 7.67998 247.056 7.96798C246.816 8.25598 246.696 8.59198 246.696 8.97598V24.6Z" fill="white"/>
<path d="M298.273 48H288.193V9.33599C288.193 8.95198 288.049 8.61598 287.761 8.32798C287.521 8.03998 287.209 7.89598 286.825 7.89598H282.937C282.553 7.89598 282.217 8.03998 281.929 8.32798C281.689 8.61598 281.569 8.95198 281.569 9.33599V48H271.489V10.2C271.489 3.86398 274.465 0.695984 280.417 0.695984H289.345C295.297 0.695984 298.273 3.86398 298.273 10.2V48Z" fill="white"/>
<path d="M332.462 10.2V39.216C332.462 45.552 329.486 48.72 323.534 48.72H313.958C308.006 48.72 305.03 45.552 305.03 39.216V10.2C305.03 3.86398 308.006 0.695984 313.958 0.695984H323.534C329.486 0.695984 332.462 3.86398 332.462 10.2ZM322.382 40.368V8.97598C322.382 8.59198 322.238 8.25598 321.95 7.96798C321.71 7.67998 321.398 7.53598 321.014 7.53598H316.478C316.094 7.53598 315.758 7.67998 315.47 7.96798C315.23 8.25598 315.11 8.59198 315.11 8.97598V40.368C315.11 40.752 315.23 41.088 315.47 41.376C315.758 41.664 316.094 41.808 316.478 41.808H321.014C321.398 41.808 321.71 41.664 321.95 41.376C322.238 41.088 322.382 40.752 322.382 40.368Z" fill="white"/>
</svg>
